<?xml version="1.0" encoding="utf-8"?>
<!-- Generator: Adobe Illustrator 21.1.0, SVG Export Plug-In . SVG Version: 6.00 Build 0)  -->
<svg version="1.1" id="Layer_1" xmlns="http://www.w3.org/2000/svg" xmlns:xlink="http://www.w3.org/1999/xlink" x="0px" y="0px"
	 viewBox="0 0 25 25" style="enable-background:new 0 0 25 25;" xml:space="preserve">
<style type="text/css">
	.st0{fill:#FFFFFF;}
</style>
<path class="st0" d="M20.2,4.6l3.3-3.3v10h-10l4.6-4.6c-1.7-1.7-3.7-2.5-6-2.5c-2.4,0-4.4,0.8-6,2.5s-2.5,3.7-2.5,6s0.8,4.4,2.5,6
	c1.7,1.7,3.7,2.5,6,2.5c1.9,0,3.5-0.5,5-1.6s2.5-2.4,3.1-4.1h2.9c-0.6,2.5-2,4.5-4,6.1s-4.4,2.4-7,2.4c-3.1,0-5.8-1.1-8-3.3
	s-3.3-4.9-3.3-8.1S2,6.8,4.2,4.6s4.9-3.3,8-3.3C15.3,1.2,18,2.3,20.2,4.6z"/>
</svg>
